<mxfile host="app.diagrams.net" modified="2023-01-21T09:48:37.844Z" agent="5.0 (Macintosh; Intel Mac OS X 10_15_7) AppleWebKit/537.36 (KHTML, like Gecko) Chrome/109.0.0.0 Safari/537.36" etag="ZrhI2qqsjMocAq4b8FuN" version="20.8.8" type="github">
  <diagram name="Page-1" id="c7558073-3199-34d8-9f00-42111426c3f3">
    <mxGraphModel dx="2074" dy="1086" grid="1" gridSize="10" guides="1" tooltips="1" connect="1" arrows="1" fold="1" page="1" pageScale="1" pageWidth="1070" pageHeight="229" background="#ffffff" math="1" shadow="0">
      <root>
        <mxCell id="0" />
        <mxCell id="1" parent="0" />
        <mxCell id="kpd2LytfiKgkB2pnJVpS-36" value="&lt;span style=&quot;color: rgba(0, 0, 0, 0); font-family: monospace; font-size: 0px; text-align: start;&quot;&gt;%3CmxGraphModel%3E%3Croot%3E%3CmxCell%20id%3D%220%22%2F%3E%3CmxCell%20id%3D%221%22%20parent%3D%220%22%2F%3E%3CmxCell%20id%3D%222%22%20value%3D%22AcEM%40K%20-%20AcEM%40(K-1)%22%20style%3D%22text%3Bhtml%3D1%3BstrokeColor%3Dnone%3BfillColor%3Dnone%3Balign%3Dcenter%3BverticalAlign%3Dmiddle%3BwhiteSpace%3Dwrap%3Brounded%3D0%3BlabelBorderColor%3D%23FFFFFF%3BstrokeWidth%3D2%3BfontFamily%3DTimes%20New%20Roman%3BfontSize%3D15%3BfontColor%3D%23000000%3B%22%20vertex%3D%221%22%20parent%3D%221%22%3E%3CmxGeometry%20x%3D%22560%22%20y%3D%22130%22%20width%3D%22195%22%20height%3D%2229.12%22%20as%3D%22geometry%22%2F%3E%3C%2FmxCell%3E%3C%2Froot%3E%3C%2FmxGraphModel%3E&lt;/span&gt;" style="text;html=1;strokeColor=none;fillColor=none;align=center;verticalAlign=middle;whiteSpace=wrap;rounded=0;labelBorderColor=#FFFFFF;strokeWidth=2;fontFamily=Times New Roman;fontSize=15;fontColor=#000000;" parent="1" vertex="1">
          <mxGeometry x="560" y="80" width="118.53" height="29.12" as="geometry" />
        </mxCell>
        <mxCell id="kpd2LytfiKgkB2pnJVpS-158" value="" style="group" parent="1" vertex="1" connectable="0">
          <mxGeometry x="40" y="40" width="491.44191082802536" height="168.24" as="geometry" />
        </mxCell>
        <mxCell id="kpd2LytfiKgkB2pnJVpS-91" value="Exact Match&lt;br&gt;Pattern" style="text;html=1;strokeColor=none;fillColor=none;align=center;verticalAlign=middle;whiteSpace=wrap;rounded=0;labelBorderColor=#FFFFFF;strokeWidth=2;fontFamily=Times New Roman;fontSize=15;fontColor=#000000;" parent="kpd2LytfiKgkB2pnJVpS-158" vertex="1">
          <mxGeometry y="80" width="118.53" height="29.12" as="geometry" />
        </mxCell>
        <mxCell id="kpd2LytfiKgkB2pnJVpS-92" value="" style="group" parent="kpd2LytfiKgkB2pnJVpS-158" vertex="1" connectable="0">
          <mxGeometry x="119.99636942675158" y="79.99882352941177" width="371.44554140127383" height="29.12117647058824" as="geometry" />
        </mxCell>
        <mxCell id="kpd2LytfiKgkB2pnJVpS-93" value="0" style="rounded=1;whiteSpace=wrap;html=1;strokeWidth=2;fontFamily=Times New Roman;fontSize=15;fillColor=#f5f5f5;fontColor=#333333;strokeColor=#666666;" parent="kpd2LytfiKgkB2pnJVpS-92" vertex="1">
          <mxGeometry y="0.0035294117647026724" width="41.273885350318466" height="29.11764705882353" as="geometry" />
        </mxCell>
        <mxCell id="kpd2LytfiKgkB2pnJVpS-94" value="0" style="rounded=1;whiteSpace=wrap;html=1;strokeWidth=2;fontFamily=Times New Roman;fontSize=15;fillColor=#f5f5f5;fontColor=#333333;strokeColor=#666666;" parent="kpd2LytfiKgkB2pnJVpS-92" vertex="1">
          <mxGeometry x="41.27388535031844" y="0.0035294117647026724" width="41.273885350318466" height="29.11764705882353" as="geometry" />
        </mxCell>
        <mxCell id="kpd2LytfiKgkB2pnJVpS-95" value="1" style="rounded=1;whiteSpace=wrap;html=1;strokeWidth=2;fontFamily=Times New Roman;fontSize=15;fillColor=#1ba1e2;strokeColor=#006EAF;fontColor=#000000;" parent="kpd2LytfiKgkB2pnJVpS-92" vertex="1">
          <mxGeometry x="82.54777070063687" y="0.0035294117647026724" width="41.273885350318466" height="29.11764705882353" as="geometry" />
        </mxCell>
        <mxCell id="kpd2LytfiKgkB2pnJVpS-96" value="1" style="rounded=1;whiteSpace=wrap;html=1;strokeWidth=2;fontFamily=Times New Roman;fontSize=15;fillColor=#dae8fc;strokeColor=#6c8ebf;" parent="kpd2LytfiKgkB2pnJVpS-92" vertex="1">
          <mxGeometry x="123.82140127388527" y="0.0035294117647026724" width="41.273885350318466" height="29.11764705882353" as="geometry" />
        </mxCell>
        <mxCell id="kpd2LytfiKgkB2pnJVpS-97" value="0" style="rounded=1;whiteSpace=wrap;html=1;strokeWidth=2;fontFamily=Times New Roman;fontSize=15;fillColor=#d80073;strokeColor=#A50040;fontColor=#000000;" parent="kpd2LytfiKgkB2pnJVpS-92" vertex="1">
          <mxGeometry x="165.0916560509554" width="41.273885350318466" height="29.11764705882353" as="geometry" />
        </mxCell>
        <mxCell id="kpd2LytfiKgkB2pnJVpS-98" value="0" style="rounded=1;whiteSpace=wrap;html=1;strokeWidth=2;fontFamily=Times New Roman;fontSize=15;fillColor=#f8cecc;strokeColor=#b85450;" parent="kpd2LytfiKgkB2pnJVpS-92" vertex="1">
          <mxGeometry x="206.36165605095545" width="41.273885350318466" height="29.11764705882353" as="geometry" />
        </mxCell>
        <mxCell id="kpd2LytfiKgkB2pnJVpS-99" value="0" style="rounded=1;whiteSpace=wrap;html=1;strokeWidth=2;fontFamily=Times New Roman;fontSize=15;fillColor=#f8cecc;strokeColor=#b85450;" parent="kpd2LytfiKgkB2pnJVpS-92" vertex="1">
          <mxGeometry x="247.63165605095543" width="41.273885350318466" height="29.11764705882353" as="geometry" />
        </mxCell>
        <mxCell id="kpd2LytfiKgkB2pnJVpS-100" value="1" style="rounded=1;whiteSpace=wrap;html=1;strokeWidth=2;fontFamily=Times New Roman;fontSize=15;fillColor=#1ba1e2;strokeColor=#006EAF;fontColor=#000000;" parent="kpd2LytfiKgkB2pnJVpS-92" vertex="1">
          <mxGeometry x="288.90165605095535" width="41.273885350318466" height="29.11764705882353" as="geometry" />
        </mxCell>
        <mxCell id="kpd2LytfiKgkB2pnJVpS-101" value="0" style="rounded=1;whiteSpace=wrap;html=1;strokeWidth=2;fontFamily=Times New Roman;fontSize=15;fillColor=#d80073;strokeColor=#A50040;fontColor=#000000;" parent="kpd2LytfiKgkB2pnJVpS-92" vertex="1">
          <mxGeometry x="330.1716560509554" width="41.273885350318466" height="29.11764705882353" as="geometry" />
        </mxCell>
        <mxCell id="kpd2LytfiKgkB2pnJVpS-110" value="&lt;font color=&quot;#000000&quot;&gt;definite positive&lt;/font&gt;" style="rounded=1;whiteSpace=wrap;html=1;strokeWidth=2;fontFamily=Times New Roman;fontSize=15;fillColor=#1ba1e2;strokeColor=#006EAF;labelBorderColor=#FFFFFF;fontColor=#ffffff;opacity=20;" parent="kpd2LytfiKgkB2pnJVpS-158" vertex="1">
          <mxGeometry x="120" width="117" height="29.12" as="geometry" />
        </mxCell>
        <mxCell id="kpd2LytfiKgkB2pnJVpS-111" value="&lt;font color=&quot;#000000&quot;&gt;definite negative&lt;/font&gt;" style="rounded=1;whiteSpace=wrap;html=1;strokeWidth=2;fontFamily=Times New Roman;fontSize=15;fillColor=#d80073;strokeColor=#A50040;labelBorderColor=#FFFFFF;opacity=20;fontColor=#ffffff;" parent="kpd2LytfiKgkB2pnJVpS-158" vertex="1">
          <mxGeometry x="250" width="117" height="29.12" as="geometry" />
        </mxCell>
        <mxCell id="kpd2LytfiKgkB2pnJVpS-126" style="edgeStyle=orthogonalEdgeStyle;rounded=0;orthogonalLoop=1;jettySize=auto;html=1;exitX=0.5;exitY=0;exitDx=0;exitDy=0;fontFamily=Times New Roman;fontSize=12;fontColor=#000000;" parent="kpd2LytfiKgkB2pnJVpS-158" source="kpd2LytfiKgkB2pnJVpS-95" edge="1">
          <mxGeometry relative="1" as="geometry">
            <mxPoint x="180" y="30" as="targetPoint" />
            <Array as="points">
              <mxPoint x="223" y="60" />
              <mxPoint x="180" y="60" />
            </Array>
          </mxGeometry>
        </mxCell>
        <mxCell id="kpd2LytfiKgkB2pnJVpS-134" style="edgeStyle=orthogonalEdgeStyle;rounded=0;orthogonalLoop=1;jettySize=auto;html=1;exitX=0.5;exitY=0;exitDx=0;exitDy=0;fontFamily=Times New Roman;fontSize=12;fontColor=#000000;" parent="kpd2LytfiKgkB2pnJVpS-158" source="kpd2LytfiKgkB2pnJVpS-100" edge="1">
          <mxGeometry relative="1" as="geometry">
            <mxPoint x="180" y="30" as="targetPoint" />
            <Array as="points">
              <mxPoint x="430" y="60" />
              <mxPoint x="180" y="60" />
            </Array>
          </mxGeometry>
        </mxCell>
        <mxCell id="kpd2LytfiKgkB2pnJVpS-146" style="edgeStyle=orthogonalEdgeStyle;rounded=0;orthogonalLoop=1;jettySize=auto;html=1;exitX=0.5;exitY=0;exitDx=0;exitDy=0;entryX=0.475;entryY=1.026;entryDx=0;entryDy=0;entryPerimeter=0;fontFamily=Times New Roman;fontSize=12;fontColor=#000000;dashed=1;dashPattern=1 1;" parent="kpd2LytfiKgkB2pnJVpS-158" source="kpd2LytfiKgkB2pnJVpS-97" target="kpd2LytfiKgkB2pnJVpS-111" edge="1">
          <mxGeometry relative="1" as="geometry" />
        </mxCell>
        <mxCell id="kpd2LytfiKgkB2pnJVpS-147" style="edgeStyle=orthogonalEdgeStyle;rounded=0;orthogonalLoop=1;jettySize=auto;html=1;exitX=0.5;exitY=0;exitDx=0;exitDy=0;entryX=0.476;entryY=1.019;entryDx=0;entryDy=0;entryPerimeter=0;fontFamily=Times New Roman;fontSize=12;fontColor=#000000;dashed=1;dashPattern=1 4;" parent="kpd2LytfiKgkB2pnJVpS-158" source="kpd2LytfiKgkB2pnJVpS-101" target="kpd2LytfiKgkB2pnJVpS-111" edge="1">
          <mxGeometry relative="1" as="geometry" />
        </mxCell>
        <mxCell id="kpd2LytfiKgkB2pnJVpS-149" value="1) Decisive part" style="text;html=1;strokeColor=none;fillColor=none;align=left;verticalAlign=middle;whiteSpace=wrap;rounded=0;labelBorderColor=#FFFFFF;strokeWidth=2;fontFamily=Times New Roman;fontSize=15;fontColor=#000000;" parent="kpd2LytfiKgkB2pnJVpS-158" vertex="1">
          <mxGeometry width="118.53" height="29.12" as="geometry" />
        </mxCell>
        <mxCell id="kpd2LytfiKgkB2pnJVpS-150" value="" style="shape=curlyBracket;whiteSpace=wrap;html=1;rounded=1;labelPosition=left;verticalLabelPosition=middle;align=right;verticalAlign=middle;labelBorderColor=#FFFFFF;strokeWidth=2;fontFamily=Times New Roman;fontSize=12;fontColor=#333333;fillColor=#f5f5f5;opacity=20;direction=north;size=0.5;strokeColor=#666666;" parent="kpd2LytfiKgkB2pnJVpS-158" vertex="1">
          <mxGeometry x="120" y="119.56" width="80" height="10" as="geometry" />
        </mxCell>
        <mxCell id="kpd2LytfiKgkB2pnJVpS-151" value="" style="shape=curlyBracket;whiteSpace=wrap;html=1;rounded=1;labelPosition=left;verticalLabelPosition=middle;align=right;verticalAlign=middle;labelBorderColor=#FFFFFF;strokeWidth=2;fontFamily=Times New Roman;fontSize=12;fillColor=#f8cecc;opacity=20;direction=north;size=0.5;strokeColor=#b85450;" parent="kpd2LytfiKgkB2pnJVpS-158" vertex="1">
          <mxGeometry x="330" y="119.56" width="80" height="10" as="geometry" />
        </mxCell>
        <mxCell id="kpd2LytfiKgkB2pnJVpS-152" value="" style="shape=curlyBracket;whiteSpace=wrap;html=1;rounded=1;labelPosition=left;verticalLabelPosition=middle;align=right;verticalAlign=middle;labelBorderColor=#FFFFFF;strokeWidth=2;fontFamily=Times New Roman;fontSize=12;fillColor=#dae8fc;opacity=20;direction=north;size=0.5;strokeColor=#6c8ebf;" parent="kpd2LytfiKgkB2pnJVpS-158" vertex="1">
          <mxGeometry x="240" y="119.56" width="50" height="10" as="geometry" />
        </mxCell>
        <mxCell id="kpd2LytfiKgkB2pnJVpS-154" value="Initial 0s" style="rounded=1;whiteSpace=wrap;html=1;strokeWidth=2;fontFamily=Times New Roman;fontSize=15;fillColor=#f5f5f5;strokeColor=#666666;labelBorderColor=#FFFFFF;opacity=20;fontColor=#333333;" parent="kpd2LytfiKgkB2pnJVpS-158" vertex="1">
          <mxGeometry x="125.63" y="139.12" width="68.75" height="29.12" as="geometry" />
        </mxCell>
        <mxCell id="kpd2LytfiKgkB2pnJVpS-155" value="semi-negative" style="rounded=1;whiteSpace=wrap;html=1;strokeWidth=2;fontFamily=Times New Roman;fontSize=15;fillColor=#f8cecc;strokeColor=#b85450;labelBorderColor=#FFFFFF;opacity=20;" parent="kpd2LytfiKgkB2pnJVpS-158" vertex="1">
          <mxGeometry x="324.13" y="139.12" width="91.75" height="29.12" as="geometry" />
        </mxCell>
        <mxCell id="kpd2LytfiKgkB2pnJVpS-156" value="semi-positive" style="rounded=1;whiteSpace=wrap;html=1;strokeWidth=2;fontFamily=Times New Roman;fontSize=15;fillColor=#dae8fc;strokeColor=#6c8ebf;labelBorderColor=#FFFFFF;fontColor=#000000;opacity=20;" parent="kpd2LytfiKgkB2pnJVpS-158" vertex="1">
          <mxGeometry x="223.25" y="139.12" width="86.75" height="29.12" as="geometry" />
        </mxCell>
        <mxCell id="kpd2LytfiKgkB2pnJVpS-157" value="2) Indecisive part" style="text;html=1;strokeColor=none;fillColor=none;align=left;verticalAlign=middle;whiteSpace=wrap;rounded=0;labelBorderColor=#FFFFFF;strokeWidth=2;fontFamily=Times New Roman;fontSize=15;fontColor=#000000;" parent="kpd2LytfiKgkB2pnJVpS-158" vertex="1">
          <mxGeometry y="139.12" width="118.53" height="29.12" as="geometry" />
        </mxCell>
      </root>
    </mxGraphModel>
  </diagram>
</mxfile>
